HIERARCHY
ROOT root
{
	OFFSET	0	13.1	24.9
	CHANNELS 6  Xposition Yposition Zposition Xrotation Yrotation Zrotation
	JOINT spine_1
	{
		OFFSET	0	9.99999	0
		CHANNELS 3  Xrotation Yrotation Zrotation
		JOINT spine_2
		{
			OFFSET	0	112	-10
			CHANNELS 3  Xrotation Yrotation Zrotation
			JOINT spine_3
			{
				OFFSET	0	206.5	19.3
				CHANNELS 3  Xrotation Yrotation Zrotation
				JOINT spine_4
				{
					OFFSET	0	110.4	14.6
					CHANNELS 3  Xrotation Yrotation Zrotation
					JOINT neck_1
					{
						OFFSET	0	71.8	-50.3
						CHANNELS 3  Xrotation Yrotation Zrotation
						JOINT neck_2
						{
							OFFSET	0	86.2	-25.8
							CHANNELS 3  Xrotation Yrotation Zrotation
							JOINT head_ee
							{
								OFFSET	0	179.8	-8.7
								CHANNELS 3  Xrotation Yrotation Zrotation
								End Site
								{
									OFFSET	1	0	0
								}
							}
						}
					}
					JOINT left_clavicle
					{
						OFFSET	-43.2	22.4	-70.8
						CHANNELS 3  Xrotation Yrotation Zrotation
						JOINT left_shoulder
						{
							OFFSET	-93.9	-5.79999	48.7
							CHANNELS 3  Xrotation Yrotation Zrotation
							JOINT left_elbow
							{
								OFFSET	-291.4	-30.8	15.2
								CHANNELS 3  Xrotation Yrotation Zrotation
								JOINT left_lowarm_twist
								{
									OFFSET	-110.7	-3.89999	13.6
									CHANNELS 3  Xrotation Yrotation Zrotation
									JOINT left_hand
									{
										OFFSET	-110.7	-3.89999	13.6
										CHANNELS 3  Xrotation Yrotation Zrotation
										JOINT left_ee
										{
											OFFSET	-80.8	-5.10001	12.1
											CHANNELS 3  Xrotation Yrotation Zrotation
											End Site
											{
												OFFSET	1	0	0
											}
										}
									}
								}
							}
						}
					}
					JOINT right_clavicle
					{
						OFFSET	43.2	22.4	-70.8
						CHANNELS 3  Xrotation Yrotation Zrotation
						JOINT right_shoulder
						{
							OFFSET	93.9	-5.79999	48.7
							CHANNELS 3  Xrotation Yrotation Zrotation
							JOINT right_elbow
							{
								OFFSET	291.4	-30.8	15.2
								CHANNELS 3  Xrotation Yrotation Zrotation
								JOINT right_lowarm_twist
								{
									OFFSET	110.7	-3.89999	13.6
									CHANNELS 3  Xrotation Yrotation Zrotation
									JOINT right_hand
									{
										OFFSET	110.7	-3.89999	13.6
										CHANNELS 3  Xrotation Yrotation Zrotation
										JOINT right_ee
										{
											OFFSET	80.8	-5.10001	12.1
											CHANNELS 3  Xrotation Yrotation Zrotation
											End Site
											{
												OFFSET	1	0	0
											}
										}
									}
								}
							}
						}
					}
				}
			}
		}
	}
	JOINT left_hip
	{
		OFFSET	-82.8	-127.5	0.300001
		CHANNELS 3  Xrotation Yrotation Zrotation
		JOINT left_knee
		{
			OFFSET	-28.2	-396.7	2.2
			CHANNELS 3  Xrotation Yrotation Zrotation
			JOINT left_ankle
			{
				OFFSET	-11.7	-411.3	35.4
				CHANNELS 3  Xrotation Yrotation Zrotation
				JOINT left_toes
				{
					OFFSET	0	-60	-88.6
					CHANNELS 3  Xrotation Yrotation Zrotation
					JOINT left_foot_ee
					{
						OFFSET	-22.5	-16.5	-42.2
						CHANNELS 3  Xrotation Yrotation Zrotation
						End Site
						{
							OFFSET	1	0	0
						}
					}
				}
			}
		}
	}
	JOINT right_hip
	{
		OFFSET	82.8	-127.5	0.300001
		CHANNELS 3  Xrotation Yrotation Zrotation
		JOINT right_knee
		{
			OFFSET	28.2	-396.7	2.2
			CHANNELS 3  Xrotation Yrotation Zrotation
			JOINT right_ankle
			{
				OFFSET	11.7	-411.3	35.4
				CHANNELS 3  Xrotation Yrotation Zrotation
				JOINT right_toes
				{
					OFFSET	0	-60	-88.6
					CHANNELS 3  Xrotation Yrotation Zrotation
					JOINT right_foot_ee
					{
						OFFSET	22.5	-16.5	-42.2
						CHANNELS 3  Xrotation Yrotation Zrotation
						End Site
						{
							OFFSET	1	0	0
						}
					}
				}
			}
		}
	}
}
MOTION
Frames: 16
Frame Time: 0.02
945.273 769.463 -1605.23 84.9629 83.0113 -88.1142 -4.26323 0.181248 1.57651 -4.26185 0.0805767 1.58484 -4.25743 -0.369981 1.54316 -4.26073 -0.121656 1.58222 2.75587 12.774 -0.0155645 3.26961 22.3584 0.825841 -0.0 0.0 -0.0 0.076721 -1.99546 -0.0870902 -21.1237 -27.3064 62.9453 0.972954 -25.7323 0.222237 -10.2545 -0.472049 1.22137 0.896291 25.9797 15.4313 -0.0 0.0 -0.0 10.1305 -24.6667 -16.8007 -9.06382 39.9891 -52.2918 2.71523 53.3608 -1.36464 -56.2063 4.81508 -4.9675 3.14934 10.0251 -17.2444 0.0 0.0 0.0 6.33634 -7.24928 -3.78344 -12.288 0.307807 1.85706 12.4091 8.68958 -1.74889 -15.267 0.0 0.0 -0.0 0.0 -0.0 -0.995781 9.36076 -5.68494 -7.41717 -0.233572 -1.11356 8.974 -11.3953 1.28234 -5.60606 0.0 0.0 0.0 0.0 0.0 
938.738 761.736 -1601.0 85.3503 82.5024 -88.3313 -4.53265 0.174601 1.49153 -4.53142 0.0793478 1.49962 -4.5273 -0.353978 1.45941 -4.53025 -0.119076 1.49699 3.53506 12.5791 0.172652 4.04995 21.7221 0.915846 -0.0 0.0 -0.0 0.442308 -2.27681 0.598477 -20.3663 -27.9406 62.8931 1.00964 -26.5711 0.238405 -9.93186 -0.453892 1.1843 0.962077 25.6079 15.7024 -0.0 0.0 -0.0 9.95112 -24.564 -16.5576 -8.97288 39.0302 -52.2926 2.71047 53.3127 -1.36083 -55.8327 4.76951 -4.95266 2.6576 8.82941 -14.3379 0.0 0.0 0.0 6.11577 -7.52762 -4.22392 -12.0099 0.305272 1.81446 7.94676 6.61997 -1.13768 -15.4829 0.0 0.0 -0.0 0.0 -0.0 -1.24068 8.97746 -5.5479 -9.46234 -0.272441 -1.42497 9.67015 -10.9366 1.378 -5.40868 0.0 0.0 0.0 0.0 0.0 
934.386 758.482 -1599.31 85.9603 82.6683 -88.5374 -4.47952 0.148229 1.28945 -4.47859 0.0658848 1.29626 -4.47559 -0.307415 1.26101 -4.47779 -0.104421 1.29373 4.38207 12.4544 0.251509 4.90987 21.2876 0.885624 -0.0 0.0 -0.0 0.576543 -3.07616 0.774545 -20.2281 -28.4354 62.1154 1.03933 -27.2413 0.251844 -9.69871 -0.440903 1.15746 1.01372 25.1387 15.8636 -0.0 0.0 -0.0 9.8655 -24.4849 -16.4472 -8.88341 38.2934 -52.3028 2.56958 51.8378 -1.24893 -55.527 4.7323 -4.9403 2.29329 7.70985 -12.3024 0.0 0.0 0.0 4.86914 -7.72293 -4.31226 -11.8223 0.303446 1.78573 4.59184 5.15601 -0.66488 -15.6321 0.0 0.0 -0.0 0.0 -0.0 -0.72512 8.64295 -5.51061 -10.9201 -0.293347 -1.64767 10.1569 -10.6089 1.44456 -5.2703 0.0 0.0 0.0 0.0 0.0 
922.637 754.472 -1594.57 84.9549 82.6325 -87.6544 -4.49204 0.208236 1.3518 -4.49103 0.121803 1.36231 -4.48639 -0.272954 1.34024 -4.48889 -0.0578837 1.36652 4.40457 11.7647 0.638002 4.84855 19.7547 1.30449 -0.0 0.0 -0.0 1.01589 -3.59367 1.58991 -20.2386 -28.609 61.334 1.04235 -27.309 0.253228 -9.75572 -0.444068 1.16402 0.947918 24.3226 15.2227 -0.0 0.0 -0.0 9.79931 -24.3904 -16.3679 -8.83017 37.7823 -52.3056 2.37038 49.5739 -1.09473 -55.241 4.69754 -4.92855 2.06461 6.99195 -11.0358 0.0 0.0 0.0 4.15582 -7.88466 -4.64686 -11.5902 0.301055 1.7502 1.13962 3.86877 -0.166826 -15.7329 0.0 0.0 -0.0 0.0 -0.0 -0.51903 8.40514 -5.46005 -12.4109 -0.308861 -1.87588 10.2896 -10.3845 1.46251 -5.19368 0.0 0.0 0.0 0.0 0.0 
918.688 755.979 -1591.57 84.4254 83.1102 -86.8946 -4.5097 0.228179 1.23876 -4.50886 0.148898 1.25077 -4.50409 -0.215455 1.24103 -4.50624 -0.0167693 1.25948 4.42298 11.2768 0.893281 4.814 18.6856 1.5778 -0.0 0.0 -0.0 1.27822 -3.95198 2.07501 -20.3744 -28.6715 60.5978 1.03906 -27.2351 0.251719 -9.80126 -0.446602 1.16927 0.899233 23.7441 14.7513 -0.0 0.0 -0.0 9.74734 -24.1261 -16.3404 -9.15892 37.4755 -52.5055 2.22934 47.8324 -0.988764 -55.0429 4.6735 -4.92032 1.90892 6.49072 -10.181 0.0 0.0 0.0 3.67678 -7.97684 -4.72928 -11.4472 0.299511 1.72831 -1.26761 2.94342 0.186915 -15.8035 0.0 0.0 -0.0 0.0 -0.0 -0.299326 8.24542 -5.38749 -13.4017 -0.315884 -2.02773 10.4386 -10.2284 1.48276 -5.13945 0.0 0.0 0.0 0.0 0.0 
913.288 758.718 -1588.28 83.4373 83.0706 -86.0676 -4.60756 0.279207 1.32132 -4.60661 0.19457 1.33641 -4.60026 -0.198454 1.33584 -4.60275 0.0149876 1.35041 4.43506 10.9423 1.08167 4.79145 17.9413 1.77975 -0.0 0.0 -0.0 1.63023 -4.2061 2.75161 -20.0016 -28.8247 60.0616 1.03657 -27.1792 0.250579 -9.851 -0.449374 1.175 0.827538 23.3147 14.1865 -0.0 0.0 -0.0 9.63858 -23.7926 -16.2401 -10.3844 37.0784 -52.167 2.08572 45.9301 -0.883914 -54.9002 4.6562 -4.91433 1.80358 6.0749 -9.63598 0.0 0.0 0.0 3.43667 -8.06897 -4.81305 -11.2822 0.297662 1.70307 -2.99752 2.27629 0.444231 -15.8515 0.0 0.0 -0.0 0.0 -0.0 -0.0986817 8.12102 -5.35736 -14.0734 -0.319152 -2.13074 10.6968 -10.1097 1.51794 -5.04468 0.0 0.0 0.0 0.0 0.0 
908.235 753.504 -1586.83 82.3775 82.8829 -84.6958 -4.48479 0.372768 1.16613 -4.48409 0.297814 1.18748 -4.47639 -0.0540275 1.22306 -4.47845 0.139796 1.21625 4.54847 10.7219 1.21086 4.8849 17.4293 1.90808 -0.0 0.0 -0.0 1.80129 -4.62818 3.05393 -19.5794 -29.1084 58.6673 1.03483 -27.1401 0.249786 -9.87139 -0.450512 1.17734 0.5011 22.6846 12.0345 -0.0 0.0 -0.0 9.5447 -22.3627 -16.3469 -11.7924 36.7118 -51.7564 1.92198 43.5895 -0.768592 -55.2462 4.69817 -4.92877 1.76802 5.03864 -9.82944 0.0 0.0 0.0 3.31015 -8.31932 -4.70881 -11.1782 0.296458 1.68715 -2.5313 1.59917 0.375271 -16.3625 0.0 0.0 -0.0 0.0 -0.0 0.788789 7.39875 -5.16868 -17.3234 -0.317899 -2.62932 14.179 -9.9638 1.98626 -4.93745 0.0 0.0 0.0 0.0 0.0 
903.982 749.406 -1585.34 80.0919 83.1169 -82.8602 -4.38016 0.477561 1.39315 -4.37917 0.387952 1.42071 -4.36737 -0.031491 1.47238 -4.37034 0.201414 1.45888 4.62491 10.4049 1.13469 4.94424 16.9351 1.80163 -0.0 0.0 -0.0 1.95687 -4.896 3.34106 -19.2825 -29.3135 57.8191 1.03559 -27.1573 0.250134 -10.0198 -0.458817 1.19441 0.206395 22.2309 10.1284 -0.0 0.0 -0.0 9.46985 -21.3157 -16.4038 -12.8065 36.4301 -51.4242 1.80111 41.736 -0.686673 -55.4917 4.72801 -4.93886 1.73672 4.15817 -9.98342 0.0 0.0 0.0 1.19784 -8.42951 -4.76473 -11.1146 0.295709 1.67743 -1.20041 1.1633 0.177598 -16.4741 0.0 0.0 -0.0 0.0 -0.0 1.57625 5.52573 -5.35284 -19.6553 -0.29958 -2.98662 16.564 -9.85362 2.2981 -4.83689 0.0 0.0 0.0 0.0 0.0 
896.929 746.851 -1588.53 80.0949 83.0181 -82.4004 -4.3291 0.506476 1.16161 -4.32845 0.431538 1.19148 -4.31788 0.0765081 1.2649 -4.32001 0.2753 1.23695 4.67644 10.1806 1.0771 4.98405 16.5896 1.72238 -0.0 0.0 -0.0 1.83262 -4.96126 3.08601 -19.329 -29.366 56.9877 1.03469 -27.1371 0.249723 -10.136 -0.465357 1.20777 -0.00493921 21.9178 8.76442 -0.0 0.0 -0.0 9.45391 -20.5559 -16.499 -13.9208 36.368 -51.3158 1.71536 40.3524 -0.63036 -55.6806 4.75099 -4.94654 1.72397 3.53782 -10.1539 0.0 0.0 0.0 0.294812 -8.46423 -4.50751 -10.8202 0.292095 1.63239 -0.264299 0.860632 0.039042 -16.5527 0.0 0.0 -0.0 0.0 -0.0 1.40724 4.22448 -5.18541 -21.774 -0.270342 -3.31039 18.232 -9.77984 2.51158 -4.73959 0.0 0.0 0.0 0.0 0.0 
891.088 761.972 -1583.88 79.3452 83.1686 -81.5973 -4.29283 0.540679 1.13597 -4.29223 0.467303 1.16807 -4.28115 0.118251 1.2525 -4.2832 0.314561 1.21811 4.64807 9.66086 1.0066 4.92428 15.7578 1.62392 -0.0 0.0 -0.0 2.01082 -4.81058 3.45683 -18.2605 -29.6948 56.7277 1.1053 -28.7013 0.282785 -10.7173 -0.498456 1.27437 -0.266376 21.6493 7.12019 -0.0 0.0 -0.0 9.34868 -19.5471 -16.485 -16.0423 36.4331 -50.8055 1.54084 37.3515 -0.520847 -55.8094 4.76668 -4.95173 1.71273 2.99682 -10.3006 0.0 0.0 0.0 -0.201963 -8.48102 -4.27268 -9.31193 0.269961 1.40202 -0.686147 0.646206 0.101512 -16.6476 0.0 0.0 -0.0 0.0 -0.0 1.58858 3.7739 -5.17111 -22.298 -0.261266 -3.39027 19.1805 -9.2993 2.63037 -4.97535 0.0 0.0 0.0 0.0 0.0 
883.702 758.82 -1584.42 79.3038 83.4761 -81.25 -4.27777 0.52728 0.984483 -4.27735 0.46357 1.01604 -4.26793 0.157877 1.10557 -4.26949 0.33049 1.06677 4.63019 9.31052 0.974947 4.88564 15.1831 1.57502 -0.0 0.0 -0.0 2.07319 -4.70661 3.59095 -17.3643 -29.9721 56.5117 1.15826 -29.8447 0.308682 -11.1276 -0.522221 1.32116 -0.453272 21.4412 5.93761 -0.0 0.0 -0.0 9.27724 -18.8294 -16.4737 -17.5248 36.4671 -50.4169 1.41239 34.9769 -0.445033 -55.9116 4.77913 -4.95582 1.70407 2.58033 -10.4129 0.0 0.0 0.0 -0.541849 -8.49128 -4.1177 -8.24147 0.250575 1.23891 -0.975361 0.499733 0.14445 -16.7034 0.0 0.0 -0.0 0.0 -0.0 1.73858 3.68913 -4.35001 -22.3557 -0.260221 -3.39907 19.8421 -8.97033 2.71249 -5.13933 0.0 0.0 0.0 0.0 0.0 
882.399 756.735 -1578.64 78.5187 83.9575 -80.4658 -4.23003 0.524396 0.986758 -4.22961 0.460547 1.01812 -4.22024 0.155308 1.10659 -4.22179 0.328115 1.06818 4.62037 9.11423 0.986512 4.86338 14.8357 1.5809 -0.0 0.0 -0.0 2.06614 -4.50502 3.59463 -16.6557 -30.1558 56.2372 1.25151 -31.796 0.356467 -11.4212 -0.539438 1.35455 -0.582104 21.2099 5.08593 -0.0 0.0 -0.0 9.22832 -18.4468 -16.4478 -18.6868 36.4477 -50.1273 1.27821 32.3401 -0.370645 -55.9819 4.7877 -4.95862 1.69113 2.29033 -10.4435 0.0 0.0 0.0 0.184731 -8.48238 -4.20184 -7.49197 0.235189 1.12492 -1.15396 0.414172 0.171009 -16.7032 0.0 0.0 -0.0 0.0 -0.0 1.61686 3.62747 -3.87052 -21.9292 -0.267731 -3.33405 20.8115 -8.66247 2.83191 -5.15652 0.0 0.0 0.0 0.0 0.0 
881.692 757.687 -1574.99 78.5 84.7206 -80.5061 -4.10316 0.450384 1.01612 -4.10267 0.384817 1.04271 -4.09448 0.0781381 1.1087 -4.09611 0.252246 1.08245 4.68348 7.86297 -1.37363 4.965 14.7193 -1.18044 -0.0 0.0 -0.0 1.91379 -1.9117 3.521 -13.4655 -31.0937 55.2873 1.34217 -33.6171 0.405461 -11.6299 -0.551782 1.37823 -0.671284 21.029 4.48651 -0.0 0.0 -0.0 9.15792 -16.9521 -16.5311 -19.3355 36.1767 -49.9253 1.18867 30.4899 -0.323968 -55.8373 4.77007 -4.95284 1.66663 2.12674 -10.3432 0.0 0.0 0.0 0.576344 -8.47675 -4.31213 -7.07031 0.225878 1.06089 -0.946038 0.408058 0.140129 -15.9521 0.0 0.0 -0.0 0.0 -0.0 1.45097 4.21058 -3.69448 -21.5866 -0.273411 -3.28179 21.4828 -8.19957 2.91347 -5.16948 0.0 0.0 0.0 0.0 0.0 
882.13 754.819 -1571.56 79.589 84.8447 -81.6696 -4.05655 0.388298 1.05115 -4.05599 0.320628 1.07372 -4.04878 0.00872261 1.12053 -4.05048 0.18557 1.1051 4.71282 6.85362 -3.36688 5.05335 14.7074 -3.51576 -0.0 0.0 -0.0 1.79992 0.742308 3.53196 -10.3512 -30.7263 55.0186 1.50546 -36.7118 0.499539 -12.4657 -0.602068 1.47261 -0.761357 20.8124 3.86562 -0.0 0.0 -0.0 9.10036 -15.8756 -16.5687 -20.2898 35.8885 -49.8064 1.10837 28.7684 -0.284265 -55.0294 4.67186 -4.91975 1.76185 3.9906 -10.225 0.0 0.0 0.0 1.20099 -8.4527 -4.28618 -8.79695 0.261015 1.32351 0.222437 0.366531 -0.0328575 -14.5511 0.0 0.0 -0.0 0.0 -0.0 1.26464 5.15913 -3.70967 -21.0864 -0.281144 -3.20543 20.7298 -4.99824 2.82258 -5.62646 0.0 0.0 0.0 0.0 0.0 
878.112 755.244 -1571.12 78.9659 85.4408 -81.1278 -3.94268 0.359022 1.09203 -3.94207 0.28881 1.11266 -3.93522 -0.0304139 1.14912 -3.93703 0.151438 1.13951 4.7593 6.16013 -4.82278 5.16071 14.7747 -5.22795 -0.0 0.0 -0.0 1.78581 2.57822 3.66292 -8.16735 -30.4929 54.84 1.65651 -39.3687 0.592641 -12.9647 -0.63275 1.52861 -0.803148 20.5178 3.49558 -0.0 0.0 -0.0 9.10153 -14.3759 -16.7466 -21.2435 35.6484 -49.8801 1.04193 27.2996 -0.253036 -54.4532 4.6021 -4.8953 1.84156 5.46671 -10.1529 0.0 0.0 0.0 1.9889 -8.49811 -4.58402 -9.89669 0.279263 1.49127 1.13707 0.155398 -0.167659 -13.5499 0.0 0.0 -0.0 0.0 -0.0 0.835223 5.7676 -3.61378 -20.7313 -0.286228 -3.15118 20.2402 -2.81186 2.76815 -5.94661 0.0 0.0 0.0 0.0 0.0 
872.643 754.908 -1571.59 79.3799 85.2602 -81.5883 -3.99642 0.356368 1.1153 -3.99577 0.284681 1.13571 -3.98884 -0.0418596 1.1701 -3.99072 0.143448 1.16203 4.86918 5.67943 -5.80778 5.32008 14.8006 -6.40101 -0.0 0.0 -0.0 1.7519 4.0202 3.72156 -6.73137 -30.2091 54.6665 1.76907 -41.2258 0.66545 -13.3092 -0.654216 1.56712 -0.82982 20.2967 3.24469 -0.0 0.0 -0.0 9.05634 -13.3124 -16.7846 -22.28 35.3239 -49.9844 0.985144 26.0124 -0.227556 -54.0504 4.55348 -4.87779 1.90254 6.52422 -10.123 0.0 0.0 0.0 2.61808 -8.54496 -4.52835 -10.3966 0.286491 1.56763 1.80219 0.0297145 -0.265348 -12.8348 0.0 0.0 -0.0 0.0 -0.0 0.589314 6.11408 -3.73787 -20.0485 -0.29506 -3.04678 19.919 -1.27179 2.73487 -6.1711 0.0 0.0 0.0 0.0 0.0 
